<!DOCTYPE svg PUBLIC "-//W3C//DTD SVG 1.1//EN" "http://www.w3.org/Graphics/SVG/1.1/DTD/svg11.dtd">
<svg  version="1.1" id="Layer_1" xmlns="http://www.w3.org/2000/svg" xmlns:xlink="http://www.w3.org/1999/xlink" viewBox="0 0 503.326 503.326" xml:space="preserve" fill="#000000">

<g id="SVGRepo_bgCarrier" stroke-width="0"/>
<g id="SVGRepo_tracerCarrier" stroke-linecap="round" stroke-linejoin="round"/>

<g id="SVGRepo_iconCarrier"> <g>
  <!-- Invoice body -->
  <path style="fill:#0078d4;" d="M121.419,0c-19.17,0-34.712,15.542-34.712,34.712v364.405l243.061,0.069v58.88 c0,22.667,16.566,42.904,39.12,45.056c25.886,2.465,47.659-17.816,47.659-43.19V295.051V86.78V43.39 c0-23.96,19.421-43.39,43.39-43.39H121.419z"/>
  <path style="fill:#0078d4;" d="M121.419,0c-19.17,0-34.712,15.542-34.712,34.712v364.405l243.061,0.069 v58.88c0,22.667,16.566,42.904,39.12,45.056c25.886,2.465,47.659-17.816,47.659-43.19V295.051V86.78V43.39 c0-23.96,19.421-43.39,43.39-43.39H121.419z"/>
  <path style="fill:#008cff;" d="M459.934,0c-23.96,0-43.39,19.43-43.39,43.39v60.824h69.346 c9.633,0,17.434-7.81,17.434-17.434V43.39C503.324,19.43,483.894,0,459.934,0"/>
  <path style="fill:#008cff;" d="M373.154,503.322c-23.96,0-43.39-19.43-43.39-43.39v-60.746l-312.329-0.078 c-9.633,0-17.434,7.81-17.434,17.434v43.39c0,23.96,19.43,43.39,43.39,43.39H373.154z"/>
  <path style="fill:#008cff;" d="M303.731,60.746H199.595c-4.79,0-8.678-3.879-8.678-8.678s3.888-8.678,8.678-8.678h104.136 c4.79,0,8.678,3.879,8.678,8.678S308.521,60.746,303.731,60.746"/>
  <path style="fill:#008cff;" d="M364.476,112.814H138.849c-4.79,0-8.678-3.879-8.678-8.678c0-4.799,3.888-8.678,8.678-8.678 h225.627c4.79,0,8.678,3.879,8.678,8.678C373.154,108.935,369.267,112.814,364.476,112.814"/>
  <path style="fill:#008cff;" d="M364.476,164.881H138.849c-4.79,0-8.678-3.879-8.678-8.678c0-4.799,3.888-8.678,8.678-8.678 h225.627c4.79,0,8.678,3.879,8.678,8.678C373.154,161.002,369.267,164.881,364.476,164.881"/>
  <path style="fill:#008cff;" d="M242.714,216.949H138.848c-4.79,0-8.678-3.879-8.678-8.678c0-4.799,3.888-8.678,8.678-8.678 h103.867c4.79,0,8.678,3.879,8.678,8.678C251.392,213.07,247.504,216.949,242.714,216.949"/>
  <path style="fill:#008cff;" d="M210.015,269.017h-71.168c-4.79,0-8.678-3.879-8.678-8.678s3.888-8.678,8.678-8.678h71.168 c4.79,0,8.678,3.879,8.678,8.678S214.805,269.017,210.015,269.017"/>
  <path style="fill:#008cff;" d="M215.497,321.085h-76.652c-4.79,0-8.678-3.879-8.678-8.678c0-4.799,3.888-8.678,8.678-8.678h76.652 c4.79,0,8.678,3.879,8.678,8.678C224.175,317.206,220.288,321.085,215.497,321.085"/>

  <!-- Círculo azul — posição do check original -->
  <circle style="fill:#3F51B5;" cx="295" cy="277.695" r="86.78"/>
  <text x="295" y="296" text-anchor="middle" font-family="Arial, sans-serif" font-weight="bold" font-size="58" fill="#FFF59D">R$</text>

  <!-- Círculo verde — offset +69/+69 igual ao padrão do valor-total original -->
  <circle style="fill:#4CAF50;" cx="364" cy="347" r="86.78"/>
  <text x="364" y="365" text-anchor="middle" font-family="Arial, sans-serif" font-weight="bold" font-size="58" fill="#FFFFFF">R$</text>

</g> </g>

</svg>
